<svg xmlns="http://www.w3.org/2000/svg" width="144" height="144" viewBox="0 0 144 144"><defs><mask id="litter-icon"><rect width="144" height="144" fill="black"/><path d="M28 58H113L132 94L124 121Q120 132 107 132H36Q23 132 19 121L12 94Z" fill="white"/><path d="M34 68H106L121 94L113 104H31L23 94Z" fill="black"/><path d="M114 13L91 52" fill="none" stroke="white" stroke-width="10" stroke-linecap="round"/><path d="M78 43L106 59L91 87Q87 93 81 89L62 78Q56 75 60 69Z" fill="white"/><path d="M73 62L91 72M69 69L87 79" fill="none" stroke="black" stroke-width="4" stroke-linecap="round"/><circle cx="41" cy="84" r="3" fill="white"/><circle cx="103" cy="91" r="3" fill="white"/></mask></defs><rect width="144" height="144" fill="#FFFFFF" mask="url(#litter-icon)"/></svg>